<svg aria-hidden="true" style="position: absolute; width: 0; height: 0; overflow: hidden;" version="1.1" xmlns="http://www.w3.org/2000/svg" xmlns:xlink="http://www.w3.org/1999/xlink">
<defs>
<symbol id="icon-icon_header_login" viewBox="0 0 32 32">
<path fill="#394d7f" style="fill: var(--color1, #394d7f)" d="M9.907 7.263c0-3.304 2.73-5.983 6.093-5.983 3.366 0 6.099 2.679 6.099 5.983 0 3.302-2.733 5.983-6.099 5.983-3.363 0-6.093-2.68-6.093-5.983zM12.777 14.692l2.376 2.033-1.478 4.17 1.946 4.372 2.173-4.44-1.622-4.102 2.519-2.031-5.914-0.001zM30.048 24.818c-0.123-1.975-0.485-4.070-1.618-5.75-1.193-1.763-4.347-3.346-6.374-3.882l-6.513 12.197-5.537-12.407c-4.567 0.849-6.121 3.558-6.367 4.018-0.023 0.023-0.045 0.048-0.066 0.074l-0.002 0.002c-1.134 1.683-1.495 3.777-1.619 5.75-0.072 1.117 0 5.902 0 5.902h28.096c0-0.001 0.072-4.782 0-5.903z"></path>
</symbol>
<symbol id="icon-icon_header_logo" viewBox="0 0 389 32">
<path fill="#394d7f" style="fill: var(--color1, #394d7f)" d="M0 31.833v-20.021s15.985-2.521 23.383-11.672c7.4 9.151 23.386 10.534 23.386 10.534v21.158z"></path>
<path fill="#394d7f" style="fill: var(--color1, #394d7f); stroke: var(--color1, #394d7f)" opacity="0.59" stroke="#394d7f" stroke-linejoin="miter" stroke-linecap="butt" stroke-miterlimit="4" stroke-width="1.1429" d="M59.23 7.195h2.613v11.406l9.591-11.406h2.867l-9.878 11.755 10.864 11.821h-3.281l-10.163-11.182v11.182h-2.613v-23.576zM79.937 30.771h-2.834l9.845-23.575h2.549l9.749 23.575h-2.867l-2.739-6.626h-10.991l-2.71 6.626zM88.125 10.159l-4.683 11.818h9.399l-4.715-11.818zM103.226 7.195h6.149c3.696 0 5.416 0.446 6.627 1.21 1.912 1.146 3.217 3.664 3.217 6.339 0.032 1.593-0.415 3.281-1.402 4.619-1.402 1.912-3.090 2.358-5.256 2.581l5.862 8.825h-2.867l-6.658-10.29h0.765c1.657 0 3.951-0.032 5.225-1.211 1.242-1.21 1.784-2.645 1.784-4.333 0-1.752-0.859-3.6-2.326-4.555-1.179-0.765-2.645-0.859-4.779-0.859h-3.695v21.249h-2.645v-23.575zM127.407 9.522h-5.799v-2.327h14.273v2.326h-5.83v21.249h-2.645v-21.248zM140.054 7.195h13.063v2.326h-10.449v8.189h10.385v2.325h-10.385v8.411h10.449v2.325h-13.063v-23.575zM175.386 26.883l-0.032-19.688h2.549v23.575h-2.549l-13.986-19.847 0.064 19.848h-2.549v-23.576h2.677l13.826 19.688z"></path>
<path fill="#394d7f" style="fill: var(--color1, #394d7f); stroke: var(--color1, #394d7f)" stroke="#394d7f" stroke-linejoin="miter" stroke-linecap="butt" stroke-miterlimit="4" stroke-width="1.1429" d="M192.703 7.195h7.040c3.346 0 6.914 0.733 9.271 3.536 1.912 2.102 2.835 4.874 2.835 8.218 0 7.105-4.047 11.821-11.978 11.821h-7.168v-23.575zM195.315 28.447h4.683c6.053 0 9.208-3.728 9.208-9.4 0-2.739-0.734-5.161-2.294-6.881-1.498-1.593-3.696-2.643-6.914-2.643h-4.683v18.925zM216.853 7.195h6.15c3.694 0 5.415 0.446 6.626 1.21 1.912 1.146 3.217 3.664 3.217 6.339 0.032 1.593-0.414 3.281-1.402 4.619-1.402 1.912-3.090 2.358-5.257 2.581l5.862 8.825h-2.866l-6.659-10.29h0.765c1.656 0 3.951-0.032 5.225-1.211 1.242-1.21 1.784-2.645 1.784-4.333 0-1.752-0.859-3.6-2.326-4.555-1.178-0.765-2.643-0.859-4.779-0.859h-3.694v21.249h-2.645v-23.575zM240.173 7.195v14.943c0 1.784 0 3.154 1.115 4.745 0.829 1.179 2.39 1.976 4.11 1.976 1.69 0 3.25-0.763 4.047-1.943 1.115-1.561 1.115-2.93 1.115-4.778v-14.943h2.613v14.943c0.031 2.738-0.319 5.448-2.677 7.263-1.306 1.114-3.058 1.784-5.098 1.784-1.656 0-3.728-0.478-5.192-1.784-2.486-2.007-2.677-4.683-2.677-7.263v-14.943h2.643zM281.494 24.432c-1.529 3.632-5.639 6.753-10.833 6.753-6.976 0-12.297-5.384-12.297-12.201 0-6.723 5.194-12.203 12.265-12.203 5.831 0 9.495 3.887 10.864 6.881h-2.834c-0.797-1.402-3.473-4.555-8.029-4.555-5.511 0-9.653 4.365-9.653 9.843 0 5.576 4.173 9.909 9.653 9.909 4.938 0 7.455-3.536 8.029-4.427h2.835zM287.070 7.195h2.611v11.406l9.591-11.406h2.867l-9.878 11.755 10.864 11.821h-3.281l-10.163-11.182v11.182h-2.611v-23.576zM307.043 30.771v-23.576h2.613v10.481h11.374v-10.481h2.643v23.575h-2.643v-10.768h-11.374v10.768h-2.613zM330.715 30.771h-2.835l9.845-23.575h2.547l9.75 23.575h-2.867l-2.739-6.626h-10.991l-2.709 6.626zM338.904 10.159l-4.685 11.818h9.399l-4.714-11.818zM355.757 7.195v14.943c0 1.784 0 3.154 1.115 4.745 0.829 1.179 2.39 1.976 4.111 1.976 1.688 0 3.25-0.763 4.045-1.943 1.117-1.561 1.117-2.93 1.117-4.778v-14.943h2.613v14.943c0.032 2.738-0.319 5.448-2.677 7.263-1.307 1.114-3.059 1.784-5.097 1.784-1.657 0-3.728-0.478-5.193-1.784-2.486-2.007-2.677-4.683-2.677-7.263v-14.943h2.643zM376.529 24.208c0.382 3.92 3.25 4.747 4.714 4.747 2.453 0 4.715-1.88 4.715-4.493 0-3.313-2.835-4.046-5.575-4.938-1.912-0.574-6.023-1.784-6.023-6.243-0.063-4.174 3.409-6.499 7.009-6.499 2.93 0 6.309 1.625 6.69 6.086h-2.613c-0.286-1.529-1.051-3.855-4.173-3.855-2.358 0-4.302 1.593-4.302 4.047-0.032 2.867 2.294 3.568 5.863 4.779 2.23 0.859 5.735 2.103 5.735 6.435 0 3.855-2.899 6.913-7.296 6.913-3.951 0-7.232-2.485-7.392-6.977h2.646z"></path>
<path fill="#fff" style="fill: var(--color2, #fff)" d="M17.167 26.307h-1.286v-2.010c-0.688 1.286-1.992 2.281-4.021 2.281-3.115 0-5.034-2.426-5.034-5.161 0-2.897 2.101-5.126 5.016-5.126 2.137 0 3.55 1.232 3.984 2.246v-5.633h1.339v13.403zM8.149 21.435c0.018 1.955 1.377 3.893 3.912 3.893 1.087 0 2.082-0.433 2.77-1.141 0.674-0.689 1.089-1.632 1.089-2.673 0-0.047-0.001-0.093-0.002-0.14l0 0.007c0-1.105-0.417-2.047-1.122-2.736-0.688-0.706-1.666-1.122-2.752-1.122-2.246 0-3.895 1.702-3.895 3.894v0.018zM29.774 26.307h-1.339v-2.010c-0.761 1.466-2.246 2.281-3.984 2.281-3.169 0-5.053-2.462-5.053-5.143 0-2.862 2.083-5.143 5.053-5.143 2.082 0 3.513 1.213 3.984 2.319v-2.047h1.339v9.743zM20.719 21.453c0.018 1.757 1.231 3.875 3.912 3.875 1.72 0 2.987-0.995 3.513-2.371 0.217-0.471 0.327-1.015 0.327-1.539 0.001-0.036 0.002-0.079 0.002-0.122 0-0.521-0.114-1.014-0.32-1.458l0.009 0.021c-0.544-1.339-1.847-2.336-3.568-2.336-2.245 0-3.875 1.738-3.875 3.912v0.017zM36.949 19.009c0-1.032-0.689-1.611-1.666-1.611-1.069 0-1.721 0.725-1.685 1.576 0.037 0.923 0.742 1.304 1.92 1.647 1.394 0.379 2.952 0.779 3.024 2.862 0.072 1.792-1.376 3.096-3.224 3.096-1.575 0-3.313-0.995-3.333-3.042h1.322c0.055 1.341 1.050 1.937 2.029 1.937 1.122 0 1.902-0.833 1.883-1.829-0.035-1.105-0.761-1.558-2.445-2.047-1.394-0.417-2.481-0.977-2.518-2.518 0-1.757 1.394-2.789 3.043-2.789 1.358 0 2.879 0.743 2.969 2.717h-1.321z"></path>
</symbol>
<symbol id="icon-icon_header_meine_bestellungen" viewBox="0 0 32 32">
<path fill="#394d7f" style="fill: var(--color1, #394d7f)" d="M27.52 2.563h-5.12v-1.283c0-0.707-0.573-1.28-1.28-1.28v0h-10.24c-0.707 0-1.28 0.573-1.28 1.28v0 1.283h-5.12c-0.708 0-1.28 0.571-1.28 1.277v26.88c0 0.707 0.573 1.28 1.28 1.28v0h23.040c0.707 0 1.28-0.573 1.28-1.28v0-26.88c-0.001-0.706-0.574-1.277-1.28-1.277 0 0 0 0 0 0v0zM12.16 2.563h7.68v2.563h-7.68v-2.563zM26.24 29.437h-20.48v-24.317h3.84v1.28c0 0.707 0.573 1.28 1.28 1.28v0h10.24c0.707 0 1.28-0.573 1.28-1.28v0-1.28h3.84v24.317z"></path>
<path fill="#394d7f" style="fill: var(--color1, #394d7f)" d="M19.84 17.92h-7.68c-0.017-0.001-0.037-0.001-0.057-0.001-0.708 0-1.283 0.574-1.283 1.283s0.574 1.283 1.283 1.283c0.020 0 0.040-0 0.060-0.001l-0.003 0h7.68c0.708 0 1.281-0.574 1.281-1.281s-0.574-1.281-1.281-1.281v0zM19.84 23.040h-7.68c-0.017-0.001-0.037-0.001-0.057-0.001-0.708 0-1.283 0.574-1.283 1.283s0.574 1.283 1.283 1.283c0.020 0 0.040-0 0.060-0.001l-0.003 0h7.68c0.708 0 1.281-0.574 1.281-1.281s-0.574-1.281-1.281-1.281v0zM19.84 12.8h-7.68c-0.017-0.001-0.037-0.001-0.057-0.001-0.708 0-1.283 0.574-1.283 1.283s0.574 1.283 1.283 1.283c0.020 0 0.040-0 0.060-0.001l-0.003 0h7.68c0.708 0 1.281-0.574 1.281-1.281s-0.574-1.281-1.281-1.281v0z"></path>
</symbol>
<symbol id="icon-icon_header_meine_zwischenspeicherungen" viewBox="0 0 32 32">
<path fill="#394d7f" style="fill: var(--color1, #394d7f)" d="M31.981 11.57l-3.187 17.308c-0.106 0.612-0.673 1.147-1.202 1.147h-26.435c-0.209 0-0.384-0.084-0.489-0.238s-0.14-0.372-0.095-0.613l3.187-17.311c0.113-0.608 0.673-1.144 1.204-1.144h26.432c0.209 0 0.383 0.084 0.488 0.239 0.106 0.155 0.141 0.367 0.096 0.612zM4.965 9.336h24.406v-1.754c0-0.95-0.658-1.722-1.468-1.728h-15.813v-2.15c0-0.951-0.655-1.724-1.468-1.732h-6.758c-0.814 0.008-1.472 0.78-1.471 1.731v2.147h-0.924c-0.813 0.005-1.469 0.78-1.468 1.732v17.23c0.004 0.179 0.028 0.356 0.078 0.525l2.532-13.766c0.232-1.253 1.265-2.234 2.355-2.234z"></path>
</symbol>
<symbol id="icon-icon_header_vorgemerkt" viewBox="0 0 32 32">
<path fill="#394d7f" style="fill: var(--color1, #394d7f)" d="M22.668 0c-2.51-0.001-4.914 1.101-6.668 3.059-1.754-1.958-4.157-3.060-6.666-3.059-5.147 0-9.334 4.567-9.334 10.182-0.005 2.679 0.963 5.252 2.693 7.151l12.34 14.212c0.232 0.28 0.579 0.456 0.967 0.456 0.362 0 0.687-0.153 0.916-0.398l0.001-0.001c0.019-0.019 0.036-0.036 0.054-0.058l12.328-14.199c1.734-1.903 2.707-4.48 2.702-7.164-0.001-5.615-4.188-10.182-9.334-10.182z"></path>
</symbol>
<symbol id="icon-icon_header_warenkorb" viewBox="0 0 32 32">
<path fill="#394d7f" style="fill: var(--color1, #394d7f)" d="M30.586 9.932h-5.83c-0.307 0-0.561 0.27-0.561 0.604v0.521c0 0.334-0.247 0.604-0.558 0.604h-2.717c-0.307 0-0.558-0.27-0.558-0.604v-0.521c0-0.334-0.25-0.604-0.561-0.604h-7.604c-0.307 0-0.558 0.27-0.558 0.604v0.521c0 0.334-0.25 0.604-0.561 0.604h-2.711c-0.31 0-0.561-0.27-0.561-0.604v-0.521c0-0.334-0.25-0.604-0.561-0.604h-5.829c-0.742 0-1.393 0.62-1.414 1.423-0.023 0.831 0.595 1.513 1.358 1.513h29.281c0.765 0 1.382-0.681 1.361-1.513-0.027-0.804-0.673-1.423-1.416-1.423zM6.333 30.924c0 0.595 0.444 1.076 0.997 1.076h17.341c0.55 0 0.995-0.481 0.995-1.076h-19.333zM3.845 27.724c0.183 1.277 1.201 2.218 2.395 2.218h19.52c1.198 0 2.213-0.941 2.395-2.218l1.972-13.829h-28.255l1.972 13.829zM21.012 17.353c0-0.756 0.564-1.37 1.265-1.37 0.703 0 1.27 0.613 1.27 1.37v8.742c0 0.758-0.567 1.368-1.27 1.368-0.7 0-1.265-0.613-1.265-1.368v-8.742zM14.733 17.353c0-0.756 0.567-1.37 1.267-1.37 0.699 0 1.267 0.613 1.267 1.37v8.742c0 0.758-0.567 1.368-1.267 1.368s-1.267-0.613-1.267-1.368v-8.742zM8.453 17.353c0-0.756 0.567-1.37 1.27-1.37 0.7 0 1.267 0.613 1.267 1.37v8.742c0 0.758-0.567 1.368-1.267 1.368s-1.27-0.613-1.27-1.368v-8.742z"></path>
<path fill="#394d7f" style="fill: var(--color1, #394d7f)" d="M9.014 10.959h1.417c0.31 0 0.561-0.27 0.561-0.603v-2.203c0-2.99 2.243-5.414 5.010-5.414s5.012 2.424 5.012 5.414v2.203c0 0.333 0.247 0.603 0.558 0.603h1.42c0.307 0 0.558-0.27 0.558-0.603v-2.203c-0.003-4.503-3.382-8.154-7.549-8.154-4.166 0-7.547 3.651-7.547 8.154v2.203c0 0.333 0.25 0.603 0.561 0.603z"></path>
</symbol>
</defs>
</svg>
