<?xml version="1.0" encoding="utf-8"?>
<!-- Generator: Adobe Illustrator 15.1.0, SVG Export Plug-In . SVG Version: 6.00 Build 0)  -->
<!DOCTYPE svg PUBLIC "-//W3C//DTD SVG 1.1//EN" "http://www.w3.org/Graphics/SVG/1.1/DTD/svg11.dtd">
<svg version="1.1" id="Ebene_1" xmlns="http://www.w3.org/2000/svg" xmlns:xlink="http://www.w3.org/1999/xlink" x="0px" y="0px"
	 width="340px" height="28px" viewBox="0 0 340 28" enable-background="new 0 0 340 28" xml:space="preserve">
<path fill="#394D7F" d="M0,27.854V10.336c0,0,13.987-2.206,20.46-10.213C26.935,8.13,40.923,9.34,40.923,9.34v18.513"/>
<path opacity="0.59" fill="#394D7F" stroke="#394D7F" d="M51.826,6.296h2.286v9.98l8.392-9.98h2.509L56.37,16.582l9.506,10.343
	h-2.871l-8.893-9.784v9.784h-2.286V6.296z"/>
<path opacity="0.59" fill="#394D7F" stroke="#394D7F" d="M69.945,26.925h-2.48l8.614-20.628h2.23l8.53,20.628H84.33l-2.397-5.798
	h-9.617L69.945,26.925z M77.109,8.889L73.011,19.23h8.224L77.109,8.889z"/>
<path opacity="0.59" fill="#394D7F" stroke="#394D7F" d="M90.323,6.296h5.38c3.234,0,4.739,0.39,5.799,1.059
	c1.673,1.003,2.815,3.206,2.815,5.547c0.028,1.394-0.363,2.871-1.227,4.042c-1.227,1.673-2.704,2.063-4.599,2.258l5.129,7.722
	h-2.509l-5.826-9.004h0.669c1.45,0,3.457-0.028,4.572-1.06c1.087-1.059,1.561-2.314,1.561-3.791c0-1.533-0.752-3.15-2.035-3.986
	c-1.032-0.669-2.314-0.752-4.182-0.752h-3.233v18.593h-2.314V6.296z"/>
<path opacity="0.59" fill="#394D7F" stroke="#394D7F" d="M111.481,8.332h-5.074V6.296h12.489v2.035h-5.101v18.593h-2.314V8.332z"/>
<path opacity="0.59" fill="#394D7F" stroke="#394D7F" d="M122.547,6.296h11.43v2.035h-9.143v7.165h9.087v2.034h-9.087v7.36h9.143
	v2.034h-11.43V6.296z"/>
<path opacity="0.59" fill="#394D7F" stroke="#394D7F" d="M153.463,23.523l-0.028-17.227h2.23v20.628h-2.23L141.197,9.558
	l0.056,17.367h-2.23V6.296h2.342L153.463,23.523z"/>
<path fill="#394D7F" stroke="#394D7F" d="M168.615,6.296h6.16c2.928,0,6.05,0.641,8.112,3.094c1.673,1.839,2.481,4.265,2.481,7.191
	c0,6.217-3.541,10.343-10.481,10.343h-6.272V6.296z M170.901,24.891h4.098c5.296,0,8.057-3.262,8.057-8.225
	c0-2.397-0.642-4.516-2.007-6.021c-1.311-1.394-3.234-2.313-6.05-2.313h-4.098V24.891z"/>
<path fill="#394D7F" stroke="#394D7F" d="M189.746,6.296h5.381c3.232,0,4.738,0.39,5.798,1.059c1.673,1.003,2.815,3.206,2.815,5.547
	c0.028,1.394-0.362,2.871-1.227,4.042c-1.227,1.673-2.704,2.063-4.6,2.258l5.129,7.722h-2.508l-5.827-9.004h0.669
	c1.449,0,3.457-0.028,4.572-1.06c1.087-1.059,1.561-2.314,1.561-3.791c0-1.533-0.752-3.15-2.035-3.986
	c-1.031-0.669-2.313-0.752-4.182-0.752h-3.232v18.593h-2.314V6.296z"/>
<path fill="#394D7F" stroke="#394D7F" d="M210.151,6.296v13.075c0,1.561,0,2.76,0.976,4.152c0.725,1.032,2.091,1.729,3.596,1.729
	c1.479,0,2.844-0.668,3.541-1.7c0.976-1.366,0.976-2.564,0.976-4.181V6.296h2.286v13.075c0.027,2.396-0.279,4.767-2.342,6.355
	c-1.143,0.975-2.676,1.561-4.461,1.561c-1.449,0-3.262-0.418-4.543-1.561c-2.175-1.756-2.342-4.098-2.342-6.355V6.296H210.151z"/>
<path fill="#394D7F" stroke="#394D7F" d="M246.307,21.378c-1.338,3.178-4.934,5.909-9.479,5.909c-6.104,0-10.76-4.711-10.76-10.676
	c0-5.883,4.545-10.678,10.732-10.678c5.102,0,8.308,3.401,9.506,6.021h-2.48c-0.697-1.227-3.039-3.986-7.025-3.986
	c-4.822,0-8.446,3.819-8.446,8.613c0,4.879,3.651,8.67,8.446,8.67c4.321,0,6.523-3.094,7.025-3.874H246.307z"/>
<path fill="#394D7F" stroke="#394D7F" d="M251.186,6.296h2.285v9.98l8.392-9.98h2.509l-8.643,10.286l9.506,10.343h-2.871
	l-8.893-9.784v9.784h-2.285V6.296z"/>
<path fill="#394D7F" stroke="#394D7F" d="M268.663,26.925V6.296h2.286v9.171h9.952V6.296h2.313v20.628h-2.313v-9.422h-9.952v9.422
	H268.663z"/>
<path fill="#394D7F" stroke="#394D7F" d="M289.376,26.925h-2.481l8.614-20.628h2.229l8.531,20.628h-2.509l-2.397-5.798h-9.617
	L289.376,26.925z M296.541,8.889l-4.099,10.341h8.224L296.541,8.889z"/>
<path fill="#394D7F" stroke="#394D7F" d="M311.287,6.296v13.075c0,1.561,0,2.76,0.976,4.152c0.725,1.032,2.091,1.729,3.597,1.729
	c1.477,0,2.844-0.668,3.539-1.7c0.977-1.366,0.977-2.564,0.977-4.181V6.296h2.286v13.075c0.028,2.396-0.279,4.767-2.342,6.355
	c-1.144,0.975-2.677,1.561-4.46,1.561c-1.45,0-3.262-0.418-4.544-1.561c-2.175-1.756-2.342-4.098-2.342-6.355V6.296H311.287z"/>
<path fill="#394D7F" stroke="#394D7F" d="M329.463,21.182c0.334,3.43,2.844,4.154,4.125,4.154c2.146,0,4.126-1.645,4.126-3.931
	c0-2.899-2.481-3.54-4.878-4.321c-1.673-0.502-5.27-1.561-5.27-5.463c-0.055-3.652,2.983-5.687,6.133-5.687
	c2.564,0,5.52,1.422,5.854,5.325h-2.286c-0.25-1.338-0.92-3.373-3.651-3.373c-2.063,0-3.764,1.394-3.764,3.541
	c-0.028,2.509,2.007,3.122,5.13,4.182c1.951,0.752,5.018,1.84,5.018,5.631c0,3.373-2.537,6.049-6.384,6.049
	c-3.457,0-6.328-2.174-6.468-6.105H329.463z"/>
<g>
	<path fill="#FFFFFF" d="M15.021,23.019h-1.125V21.26c-0.602,1.125-1.743,1.996-3.518,1.996c-2.726,0-4.405-2.123-4.405-4.516
		c0-2.535,1.838-4.485,4.389-4.485c1.87,0,3.106,1.078,3.486,1.965v-1.807v-3.122h1.172V23.019z M7.13,18.756
		c0.016,1.711,1.205,3.406,3.423,3.406c0.951,0,1.822-0.379,2.424-0.998c0.618-0.634,0.982-1.505,0.951-2.455
		c0-0.967-0.365-1.791-0.982-2.394c-0.602-0.618-1.458-0.982-2.408-0.982c-1.965,0-3.408,1.489-3.408,3.407V18.756z"/>
	<path fill="#FFFFFF" d="M26.052,23.019H24.88V21.26c-0.666,1.283-1.965,1.996-3.486,1.996c-2.773,0-4.421-2.154-4.421-4.5
		c0-2.504,1.823-4.5,4.421-4.5c1.822,0,3.074,1.061,3.486,2.029v-1.791h1.172V23.019z M18.129,18.771
		c0.016,1.537,1.077,3.391,3.423,3.391c1.505,0,2.614-0.871,3.074-2.075c0.19-0.412,0.286-0.888,0.286-1.347
		c0.016-0.476-0.08-0.951-0.27-1.363c-0.476-1.172-1.616-2.044-3.122-2.044c-1.964,0-3.391,1.521-3.391,3.423V18.771z"/>
	<path fill="#FFFFFF" d="M32.33,16.633c0-0.903-0.603-1.41-1.458-1.41c-0.935,0-1.506,0.634-1.474,1.379
		c0.032,0.808,0.649,1.141,1.68,1.441c1.22,0.332,2.583,0.682,2.646,2.504c0.063,1.568-1.204,2.709-2.821,2.709
		c-1.378,0-2.899-0.871-2.916-2.662h1.157c0.048,1.173,0.919,1.695,1.775,1.695c0.982,0,1.664-0.729,1.648-1.6
		c-0.031-0.967-0.666-1.363-2.139-1.791c-1.22-0.365-2.171-0.855-2.203-2.203c0-1.537,1.22-2.44,2.663-2.44
		c1.188,0,2.519,0.65,2.598,2.377H32.33z"/>
</g>
</svg>
