<svg xmlns="http://www.w3.org/2000/svg" width="25" height="25" xml:space="preserve"><path fill="#394D7F" d="M7.74 5.674C7.74 3.093 9.873 1 12.5 1c2.63 0 4.765 2.093 4.765 4.674 0 2.58-2.135 4.674-4.765 4.674-2.627 0-4.76-2.094-4.76-4.674zm2.242 5.804 1.856 1.588-1.155 3.258 1.52 3.416 1.698-3.469-1.267-3.205 1.968-1.587-4.62-.001zm13.493 7.911c-.096-1.543-.379-3.18-1.264-4.492-.932-1.377-3.396-2.614-4.98-3.033l-5.088 9.529L7.817 11.7c-3.568.663-4.782 2.78-4.974 3.139a.908.908 0 0 0-.053.059c-.886 1.315-1.168 2.951-1.265 4.492-.056.873 0 4.611 0 4.611h21.95c0-.001.056-3.736 0-4.612z"/></svg>