<svg xmlns="http://www.w3.org/2000/svg" width="25" height="25" xml:space="preserve"><g fill="#394D7F"><path d="M21.5 2.002h-4V1a1 1 0 0 0-1-1h-8a1 1 0 0 0-1 1v1.002h-4c-.553 0-1 .446-1 .998v21a1 1 0 0 0 1 1h18a1 1 0 0 0 1-1V3a1 1 0 0 0-1-.998zm-12 0h6v2.002h-6V2.002zm11 20.996h-16V4h3v1a1 1 0 0 0 1 1h8a1 1 0 0 0 1-1V4h3v18.998z"/><path d="M15.5 14h-6a1.002 1.002 0 1 0 0 2.002h6a1 1 0 1 0 0-2.002zM15.5 18h-6a1.002 1.002 0 1 0 0 2.002h6a1 1 0 1 0 0-2.002zM15.5 10h-6a1.002 1.002 0 1 0 0 2.002h6a1 1 0 1 0 0-2.002z"/></g></svg>