<svg xmlns="http://www.w3.org/2000/svg" width="25" height="25" xml:space="preserve"><g fill="#394D7F"><path d="M23.895 7.759H19.34c-.24 0-.438.211-.438.472v.407c0 .261-.193.472-.436.472h-2.123c-.24 0-.436-.211-.436-.472v-.407c0-.261-.195-.472-.438-.472H9.528c-.24 0-.436.211-.436.472v.407c0 .261-.195.472-.438.472H6.536c-.242 0-.438-.211-.438-.472v-.407c0-.261-.195-.472-.438-.472H1.106c-.58 0-1.088.484-1.105 1.112-.018.649.465 1.182 1.061 1.182h22.876c.598 0 1.08-.532 1.063-1.182-.021-.628-.526-1.112-1.106-1.112M4.948 24.159c0 .465.347.841.779.841h13.548c.43 0 .777-.376.777-.841H4.948zM3.004 21.659c.143.998.938 1.733 1.871 1.733h15.25c.936 0 1.729-.735 1.871-1.733l1.541-10.804H1.463l1.541 10.804zm13.412-8.102c0-.591.441-1.07.988-1.07.549 0 .992.479.992 1.07v6.83c0 .592-.443 1.069-.992 1.069-.547 0-.988-.479-.988-1.069v-6.83zm-4.906 0c0-.591.443-1.07.99-1.07.546 0 .99.479.99 1.07v6.83c0 .592-.443 1.069-.99 1.069-.547 0-.99-.479-.99-1.069v-6.83zm-4.906 0c0-.591.443-1.07.992-1.07.547 0 .99.479.99 1.07v6.83c0 .592-.443 1.069-.99 1.069s-.992-.479-.992-1.069v-6.83z"/><path d="M7.042 8.562h1.107c.242 0 .438-.211.438-.471V6.37c0-2.336 1.752-4.23 3.914-4.23s3.916 1.894 3.916 4.23v1.721c0 .26.193.471.436.471h1.109c.24 0 .436-.211.436-.471V6.37C18.396 2.852 15.756 0 12.5 0 9.245 0 6.604 2.852 6.604 6.37v1.721c0 .26.195.471.438.471"/></g></svg>