<svg xmlns="http://www.w3.org/2000/svg" width="25" height="25" xml:space="preserve"><path fill="#394D7F" d="m24.985 9.039-2.49 13.522c-.083.478-.526.896-.939.896H.904c-.163 0-.3-.066-.382-.186s-.109-.291-.074-.479l2.49-13.524c.088-.475.526-.894.941-.894h20.65c.163 0 .299.066.381.187.083.121.11.287.075.478zM3.879 7.294h19.067v-1.37c0-.742-.514-1.345-1.147-1.35H9.445v-1.68c0-.743-.512-1.347-1.147-1.353h-5.28c-.636.006-1.15.609-1.149 1.352V4.57h-.722C.512 4.574-.001 5.179 0 5.923v13.461c.003.14.022.278.061.41L2.039 9.039c.181-.979.988-1.745 1.84-1.745z"/></svg>